<?xml version="1.0" encoding="utf-8"?>
<!-- Generator: Adobe Illustrator 16.2.1, SVG Export Plug-In . SVG Version: 6.00 Build 0)  -->
<!DOCTYPE svg PUBLIC "-//W3C//DTD SVG 1.1//EN" "http://www.w3.org/Graphics/SVG/1.1/DTD/svg11.dtd">
<svg version="1.1" id="Layer_1" xmlns="http://www.w3.org/2000/svg" xmlns:xlink="http://www.w3.org/1999/xlink" x="0px" y="0px"
	 width="2000px" height="228.28px" viewBox="0 0 2000 228.28" enable-background="new 0 0 2000 228.28" xml:space="preserve">
<g id="Stroke">
	<g>
		<path fill="#FFFFFF" d="M2000,131.011c0,30.034-7.433,53.823-22.293,71.382c-14.865,17.56-34.758,25.888-60.812,25.888
			c-26.165,0-47.268-8.328-62.182-25.888c-14.915-17.559-22.366-41.348-22.366-71.382V97.724c0-29.927,7.402-53.694,22.214-71.306
			c14.811-17.611,35.295-26.416,61.461-26.416c26.055,0,46.57,8.805,61.533,26.416C1992.518,44.029,2000,67.797,2000,97.724V131.011
			z M1991.755,97.419c0-27.28-6.566-48.962-19.697-65.047c-13.132-16.084-27.857-23.557-52.08-23.557
			c-24.125,0-46.662,7.473-59.689,23.557c-13.033,16.085-19.545,37.767-19.545,65.047v33.592c0,27.487,6.535,49.272,19.618,65.354
			c13.083,16.081,32.792,24.391,57.021,24.391c24.223,0,41.795-8.285,54.828-24.317c13.027-16.033,19.545-37.837,19.545-65.428
			V97.419z"/>
		<path fill="#FFFFFF" d="M1605.894,173.159l9.62,36.034h0.916l9.619-36.034l53.186-170.03h6.254l54.468,170.03l9.467,36.034h0.916
			l9.925-36.034l47.182-170.03h9.381l-61.601,221.944h-9.314l-55.121-185.368l-7.329-22.141h-0.917l-7.023,22.141l-55.579,185.368
			h-9.313L1551.024,3.129h8.758L1605.894,173.159z"/>
		<path fill="#FFFFFF" d="M1535.456,12.511h-78.245v212.643h-9.381V12.511h-80.748V3.395h168.374V12.511z"/>
		<path fill="#FFFFFF" d="M1260.204,112.577h-106.321v103.934h121.957v8.643h-131.338V3.868h131.338v8.643h-121.957v91.425h106.321
			V112.577z"/>
		<path fill="#FFFFFF" d="M1096.605,173.669c0-12.722-5.222-22.983-15.653-30.773c-10.432-7.787-28.224-15.8-53.362-24.045
			c-25.041-7.635-43.492-15.728-55.354-24.278c-11.86-8.551-17.785-21.224-17.785-38.02c0-16.698,6.944-30.208,20.84-40.543
			c13.895-10.327,31.533-15.494,52.91-15.494c22.188,0,40.358,5.319,53.515,17.101c12.753,11.415,19.007,28.199,19.007,48.94h-7.079
			c3.128-12.276-5.741-30.568-17.956-41.458c-12.215-10.896-28.089-17.278-47.529-17.278c-20.058,0-35.943,5.649-47.749,15.061
			c-11.812,9.418-17.712,20.54-17.712,33.366s4.758,23.233,14.273,31.223c9.516,7.994,27.258,15.806,53.215,23.44
			c25.243,7.94,44.023,16.186,56.343,24.736c12.313,8.554,18.476,21.123,18.476,37.717c0,16.9-7.28,30.435-21.834,40.616
			c-14.561,10.181-32.523,14.301-53.9,14.301c-22.293,0-41.482-4.248-57.564-14.686c-16.087-10.433-24.723-26.844-24.21-49.24V163.5
			h9.381c0,20.155,6.071,34.728,20.937,43.834c14.86,9.112,31.932,13.422,51.378,13.422c19.44,0,35.601-4.261,48.329-13.27
			C1090.242,198.479,1096.605,187.21,1096.605,173.669z"/>
		<path fill="#FFFFFF" d="M896.6,159.484H788.037l-24.889,65.589h-9.008L837.204,3.129h10.077l83.217,221.944h-9.01L896.6,159.484z
			 M791.091,150.103h102.455l-46.571-124.14l-4.274-12.979h-0.917l-4.122,12.979L791.091,150.103z"/>
		<path fill="#FFFFFF" d="M591.005,225.156V3.129h59.415c23.001,0,41.544,4.44,54.272,13.907
			c12.722,9.467,20.777,23.618,20.777,42.381c0,12.509-4.721,23.377-10.779,32.132c-6.053,8.756-14.634,14.606-25.726,17.56
			l-0.152,0.916c13.132,1.731,24.174,7.763,33.134,18.094c8.953,10.331,13.437,22.269,13.437,35.81
			c0,19.44-6.284,34.508-18.86,45.196c-12.569,10.688-29.188,16.032-49.85,16.032H591.005z M600.387,106.241h56.287
			c19.239-0.306,34.147-3.628,43.969-11.568c9.827-7.939,15.446-19.798,15.446-35.576c0-15.88-6.132-27.866-16.973-35.959
			c-10.842-8.093-27.527-10.71-48.696-10.71h-50.033V106.241z M600.387,115.622v100.07h65.669c18.726,0,34.104-3.493,44.896-12.759
			c10.786-9.266,16.186-22.189,16.186-38.783c0-14.658-5.448-26.468-16.338-35.428c-10.896-8.956-26.22-13.101-44.744-13.101
			H600.387z"/>
	</g>
	<g>
		<path fill="#FFFFFF" d="M264.292,66.532c-0.394,0-0.788-0.152-1.09-0.452c-0.602-0.604-0.602-1.582,0-2.18L320.31,6.794
			c0.602-0.602,1.576-0.602,2.181,0c0.602,0.604,0.602,1.579,0,2.181L265.381,66.08C265.085,66.38,264.685,66.532,264.292,66.532z"
			/>
		<path fill="#FFFFFF" d="M416.57,218.811c-0.397,0-0.791-0.15-1.091-0.452c-0.604-0.602-0.604-1.579,0-2.181l57.106-57.106
			c0.602-0.604,1.582-0.604,2.18,0c0.602,0.603,0.602,1.576,0,2.181l-57.105,57.106C417.357,218.66,416.963,218.811,416.57,218.811z
			"/>
		<path fill="#FFFFFF" d="M257.949,98.255c-0.394,0-0.788-0.149-1.09-0.451c-0.602-0.602-0.602-1.576,0-2.181l95.174-95.172
			c0.603-0.602,1.576-0.602,2.181,0c0.603,0.602,0.603,1.579,0,2.181l-95.175,95.172C258.737,98.105,258.342,98.255,257.949,98.255z
			"/>
		<path fill="#FFFFFF" d="M384.843,225.153c-0.391,0-0.788-0.15-1.09-0.452c-0.599-0.602-0.599-1.579,0-2.181l95.175-95.175
			c0.602-0.604,1.579-0.604,2.181,0c0.602,0.602,0.602,1.576,0,2.181l-95.176,95.175
			C385.634,225.003,385.241,225.153,384.843,225.153z"/>
		<path fill="#FFFFFF" d="M257.949,123.633c-0.394,0-0.788-0.147-1.09-0.449c-0.602-0.602-0.602-1.579,0-2.184L377.411,0.451
			c0.602-0.602,1.579-0.602,2.181,0c0.604,0.602,0.604,1.579,0,2.181L259.039,123.184
			C258.737,123.485,258.342,123.633,257.949,123.633z"/>
		<path fill="#FFFFFF" d="M359.466,225.153c-0.395,0-0.791-0.15-1.09-0.452c-0.605-0.602-0.605-1.579,0-2.181l120.552-120.555
			c0.602-0.602,1.579-0.602,2.181,0s0.602,1.578,0,2.184L360.556,224.701C360.254,225.003,359.86,225.153,359.466,225.153z"/>
		<path fill="#FFFFFF" d="M261.127,145.843c-0.4,0-0.794-0.152-1.093-0.452c-0.605-0.602-0.605-1.579,0-2.181L399.618,3.624
			c0.602-0.604,1.579-0.604,2.177,0c0.605,0.602,0.605,1.576,0,2.181l-139.58,139.586
			C261.913,145.69,261.519,145.843,261.127,145.843z"/>
		<path fill="#FFFFFF" d="M267.467,164.877c-0.397,0-0.791-0.149-1.09-0.452c-0.605-0.602-0.605-1.578,0-2.18L418.652,9.97
			c0.602-0.604,1.579-0.604,2.181,0c0.602,0.602,0.602,1.576,0,2.181L268.558,164.425
			C268.255,164.728,267.861,164.877,267.467,164.877z"/>
		<path fill="#FFFFFF" d="M276.986,180.738c-0.396,0-0.791-0.149-1.093-0.452c-0.602-0.602-0.602-1.578,0-2.18l158.62-158.621
			c0.602-0.602,1.579-0.602,2.181,0c0.602,0.604,0.602,1.579,0,2.181l-158.617,158.62
			C277.774,180.589,277.38,180.738,276.986,180.738z"/>
		<path fill="#FFFFFF" d="M318.225,215.635c-0.394,0-0.788-0.15-1.09-0.452c-0.599-0.602-0.599-1.579,0-2.181L469.41,60.728
			c0.604-0.603,1.578-0.603,2.18,0c0.608,0.602,0.608,1.578,0,2.18L319.315,215.183
			C319.016,215.484,318.619,215.635,318.225,215.635z"/>
		<path fill="#FFFFFF" d="M289.671,193.43c-0.391,0-0.791-0.149-1.09-0.451c-0.602-0.602-0.602-1.576,0-2.181L447.205,32.177
			c0.605-0.604,1.579-0.604,2.181,0c0.604,0.602,0.604,1.576,0,2.181L290.762,192.979C290.459,193.28,290.065,193.43,289.671,193.43
			z"/>
		<path fill="#FFFFFF" d="M302.363,206.119c-0.394,0-0.785-0.153-1.09-0.452c-0.602-0.604-0.602-1.579,0-2.181L459.894,44.865
			c0.602-0.602,1.575-0.602,2.184,0c0.598,0.602,0.598,1.579,0,2.181L303.454,205.667
			C303.154,205.966,302.757,206.119,302.363,206.119z"/>
		<path fill="#FFFFFF" d="M337.262,221.978c-0.397,0-0.791-0.15-1.09-0.452c-0.605-0.602-0.605-1.576,0-2.181l139.58-139.586
			c0.608-0.602,1.579-0.602,2.184,0c0.605,0.602,0.605,1.578,0,2.183L338.352,221.525
			C338.05,221.827,337.656,221.978,337.262,221.978z"/>
	</g>
	<path fill="#FFFFFF" d="M225.135,112.577c0,62.176-50.381,112.579-112.56,112.579C50.403,225.156,0,174.753,0,112.577
		C0,50.408,50.403,0.002,112.576,0.002C174.754,0.002,225.135,50.408,225.135,112.577z"/>
</g>
</svg>
